<svg width="336" height="232" viewBox="0 0 336 232" fill="none" xmlns="http://www.w3.org/2000/svg">
<path d="M16.6756 99.9925C13.6203 99.9925 10.795 99.2516 8.20403 97.7704C5.70422 96.2892 3.71223 94.2984 2.2323 91.7986C0.74804 89.2064 0.0102188 86.3824 0.0102188 83.3271V79.4385H11.2593V83.3271C11.2593 84.8083 11.7671 86.1046 12.787 87.2157C13.8981 88.2342 15.1913 88.7433 16.6756 88.7433H83.3373C84.8172 88.7433 86.067 88.2342 87.0869 87.2157C88.198 86.1046 88.7535 84.8083 88.7535 83.3271V60.9676C88.7535 59.4864 88.198 58.2365 87.0869 57.2179C86.067 56.1993 84.8172 55.6903 83.3373 55.6903H16.6756C13.6203 55.6903 10.795 54.9494 8.20403 53.4682C5.70422 51.8941 3.71223 49.8574 2.2323 47.3576C0.74804 44.8577 0.0102188 42.0802 0.0102188 39.0248V16.6654C0.0102188 13.6101 0.74804 10.8325 2.2323 8.33273C3.71223 5.74047 5.70422 3.7033 8.20403 2.22207C10.795 0.740847 13.6203 1.3517e-05 16.6756 1.3517e-05H83.3373C86.3926 1.3517e-05 89.1701 0.740847 91.6699 2.22207C94.2609 3.7033 96.2963 5.74047 97.7806 8.33273C99.2605 10.8325 100.003 13.6101 100.003 16.6654V20.554H88.7535V16.6654C88.7535 15.1842 88.198 13.9343 87.0869 12.9157C86.067 11.8047 84.8172 11.2492 83.3373 11.2492H16.6756C15.1913 11.2492 13.8981 11.8047 12.787 12.9157C11.7671 13.9343 11.2593 15.1842 11.2593 16.6654V39.0248C11.2593 40.5061 11.7671 41.756 12.787 42.7746C13.8981 43.7932 15.1913 44.3022 16.6756 44.3022H83.3373C86.3926 44.3022 89.1701 45.0891 91.6699 46.6632C94.2609 48.1444 96.2963 50.1351 97.7806 52.6349C99.2605 55.1347 100.003 57.9123 100.003 60.9676V83.3271C100.003 86.3824 99.2605 89.2064 97.7806 91.7986C96.2963 94.2984 94.2609 96.2892 91.6699 97.7704C89.1701 99.2516 86.3926 99.9925 83.3373 99.9925H16.6756ZM114.897 99.9925V1.3517e-05H130.313L171.838 49.4407L213.362 1.3517e-05H228.778V99.9925H217.528V12.7768L171.838 67.0783L126.146 12.7768V99.9925H114.897ZM244.02 99.9925V1.3517e-05H335.263V11.2492H255.269V44.3022H319.569V55.6903H255.269V88.7433H335.263V99.9925H244.02ZM16.6655 231.211C13.6101 231.211 10.7891 230.47 8.19379 228.989C5.69397 227.508 3.70624 225.517 2.22198 223.017C0.742053 220.425 0 217.601 0 214.546V147.883C0 144.828 0.742053 142.05 2.22198 139.551C3.70624 136.958 5.69397 134.921 8.19379 133.44C10.7891 131.959 13.6101 131.218 16.6655 131.218H99.7148V142.467H16.6655C15.1855 142.467 13.8878 143.023 12.7768 144.134C11.7613 145.152 11.2491 146.402 11.2491 147.883V214.546C11.2491 216.027 11.7613 217.323 12.7768 218.434C13.8878 219.453 15.1855 219.962 16.6655 219.962H99.7148V231.211H16.6655ZM114.475 231.211V131.218H205.718V142.467H125.724V175.521H190.025V186.909H125.724V231.211H114.475ZM230.947 231.211C227.891 231.211 225.066 230.47 222.475 228.989C219.975 227.508 217.983 225.517 216.503 223.017C215.019 220.425 214.281 217.601 214.281 214.546V147.883C214.281 144.828 215.019 142.05 216.503 139.551C217.983 136.958 219.975 134.921 222.475 133.44C225.066 131.959 227.891 131.218 230.947 131.218H297.608C300.663 131.218 303.441 131.959 305.941 133.44C308.532 134.921 310.567 136.958 312.052 139.551C313.531 142.05 314.274 144.828 314.274 147.883V214.546C314.274 217.601 313.531 220.425 312.052 223.017C310.567 225.517 308.532 227.508 305.941 228.989C303.441 230.47 300.663 231.211 297.608 231.211H230.947ZM230.947 219.962H297.608C299.088 219.962 300.338 219.453 301.358 218.434C302.469 217.323 303.024 216.027 303.024 214.546V147.883C303.024 146.402 302.469 145.152 301.358 144.134C300.338 143.023 299.088 142.467 297.608 142.467H230.947C229.462 142.467 228.169 143.023 227.058 144.134C226.038 145.152 225.53 146.402 225.53 147.883V214.546C225.53 216.027 226.038 217.323 227.058 218.434C228.169 219.453 229.462 219.962 230.947 219.962Z" fill="white"/>
</svg>
