<svg width="360" height="124" viewBox="0 0 360 124" fill="none" xmlns="http://www.w3.org/2000/svg">
<path d="M64.0328 75V54.552H53.7928V51.96H76.8328V54.552H66.6248V75H64.0328ZM79.2581 75V51.96H81.8501V62.168H100.25V51.96H102.874V75H100.25V64.792H81.8501V75H79.2581ZM106.509 75V51.96H127.533V54.552H109.101V62.168H123.917V64.792H109.101V72.408H127.533V75H106.509ZM143.344 75C142.64 75 141.989 74.8293 141.392 74.488C140.816 74.1467 140.357 73.688 140.016 73.112C139.674 72.5147 139.504 71.864 139.504 71.16V70.264H142.096V71.16C142.096 71.5013 142.213 71.8 142.448 72.056C142.704 72.2907 143.002 72.408 143.344 72.408H158.704C159.045 72.408 159.333 72.2907 159.568 72.056C159.824 71.8 159.952 71.5013 159.952 71.16V66.008C159.952 65.6667 159.824 65.3787 159.568 65.144C159.333 64.9093 159.045 64.792 158.704 64.792H143.344C142.64 64.792 141.989 64.6213 141.392 64.28C140.816 63.9173 140.357 63.448 140.016 62.872C139.674 62.296 139.504 61.656 139.504 60.952V55.8C139.504 55.096 139.674 54.456 140.016 53.88C140.357 53.2827 140.816 52.8133 141.392 52.472C141.989 52.1307 142.64 51.96 143.344 51.96H158.704C159.408 51.96 160.048 52.1307 160.624 52.472C161.221 52.8133 161.69 53.2827 162.032 53.88C162.373 54.456 162.544 55.096 162.544 55.8V56.696H159.952V55.8C159.952 55.4587 159.824 55.1707 159.568 54.936C159.333 54.68 159.045 54.552 158.704 54.552H143.344C143.002 54.552 142.704 54.68 142.448 54.936C142.213 55.1707 142.096 55.4587 142.096 55.8V60.952C142.096 61.2933 142.213 61.5813 142.448 61.816C142.704 62.0507 143.002 62.168 143.344 62.168H158.704C159.408 62.168 160.048 62.3493 160.624 62.712C161.221 63.0533 161.69 63.512 162.032 64.088C162.373 64.664 162.544 65.304 162.544 66.008V71.16C162.544 71.864 162.373 72.5147 162.032 73.112C161.69 73.688 161.221 74.1467 160.624 74.488C160.048 74.8293 159.408 75 158.704 75H143.344ZM165.976 75V51.96H169.528L179.096 63.352L188.664 51.96H192.216V75H189.624V54.904L179.096 67.416L168.568 54.904V75H165.976ZM195.728 75V51.96H216.752V54.552H198.32V62.168H213.136V64.792H198.32V72.408H216.752V75H195.728ZM232.722 75C232.018 75 231.368 74.8293 230.77 74.488C230.194 74.1467 229.736 73.688 229.394 73.112C229.053 72.5147 228.882 71.864 228.882 71.16V55.8C228.882 55.096 229.053 54.456 229.394 53.88C229.736 53.2827 230.194 52.8133 230.77 52.472C231.368 52.1307 232.018 51.96 232.722 51.96H251.858V54.552H232.722C232.381 54.552 232.082 54.68 231.826 54.936C231.592 55.1707 231.474 55.4587 231.474 55.8V71.16C231.474 71.5013 231.592 71.8 231.826 72.056C232.082 72.2907 232.381 72.408 232.722 72.408H251.858V75H232.722ZM255.259 75V51.96H276.283V54.552H257.851V62.168H272.667V64.792H257.851V75H255.259ZM282.096 75C281.392 75 280.741 74.8293 280.144 74.488C279.568 74.1467 279.109 73.688 278.768 73.112C278.426 72.5147 278.256 71.864 278.256 71.16V55.8C278.256 55.096 278.426 54.456 278.768 53.88C279.109 53.2827 279.568 52.8133 280.144 52.472C280.741 52.1307 281.392 51.96 282.096 51.96H297.456C298.16 51.96 298.8 52.1307 299.376 52.472C299.973 52.8133 300.442 53.2827 300.784 53.88C301.125 54.456 301.296 55.096 301.296 55.8V71.16C301.296 71.864 301.125 72.5147 300.784 73.112C300.442 73.688 299.973 74.1467 299.376 74.488C298.8 74.8293 298.16 75 297.456 75H282.096ZM282.096 72.408H297.456C297.797 72.408 298.085 72.2907 298.32 72.056C298.576 71.8 298.704 71.5013 298.704 71.16V55.8C298.704 55.4587 298.576 55.1707 298.32 54.936C298.085 54.68 297.797 54.552 297.456 54.552H282.096C281.754 54.552 281.456 54.68 281.2 54.936C280.965 55.1707 280.848 55.4587 280.848 55.8V71.16C280.848 71.5013 280.965 71.8 281.2 72.056C281.456 72.2907 281.754 72.408 282.096 72.408Z" fill="black"/>
<path d="M249.557 0.912708C252.372 0.624484 255.09 0.288224 255.624 0.240186C256.157 0.144112 259.798 0.0480373 263.778 0C267.709 0 273.048 0.192149 275.62 0.480373C278.241 0.768596 281.881 1.39308 283.774 1.87345C285.667 2.30579 288.822 3.50672 290.812 4.46747C292.802 5.42821 295.617 7.20559 297.073 8.45456C298.917 10.0878 300.179 11.8172 301.441 14.3631C303.188 17.9179 303.188 17.9179 303.14 23.9706C303.091 27.5734 302.8 30.936 301.684 34.779L276.737 35.0192V33.482C276.737 32.6173 276.494 30.5997 276.203 29.0145C275.911 27.4293 275.232 25.1715 274.698 23.9706C274.164 22.7697 272.562 20.608 271.155 19.1669C269.699 17.6297 267.272 15.8523 265.525 14.9876C263.826 14.123 260.671 12.922 258.536 12.3456C255.187 11.4329 253.391 11.2888 245.431 11.2888C238.83 11.2888 234.85 11.5289 231.356 12.1054C228.686 12.5858 223.881 13.5945 220.678 14.3631C217.475 15.1317 211.456 16.8611 207.331 18.2542C203.205 19.5992 196.798 22.0011 193.11 23.5383C189.47 25.0755 183.985 27.5734 181.024 29.0625C178.015 30.5517 172.822 33.3859 169.473 35.4035C166.124 37.373 162.29 39.8229 160.979 40.7836C159.62 41.7444 158.067 42.7051 157.436 42.8973C156.854 43.0414 156.271 43.0414 156.174 42.8492C156.077 42.6091 156.32 42.0326 156.757 41.4562C157.242 40.9277 159.669 38.9582 162.193 37.0367C164.716 35.1633 169.861 31.8007 173.598 29.5429C177.336 27.3332 183.451 23.9226 187.188 21.953C190.926 19.9835 196.604 17.1973 199.808 15.7082C203.011 14.2671 208.787 11.8652 212.67 10.376C216.552 8.88689 222.765 6.82129 226.502 5.76447C230.239 4.70765 235.821 3.31457 238.879 2.64205C241.937 2.01757 246.742 1.24897 249.557 0.912708Z" fill="#0F2043"/>
<path d="M3.0837 102.883C3.55761 101.901 5.19261 100.141 6.70625 98.9253C8.87222 97.2565 10.0492 96.7756 11.8542 96.7991C13.9622 96.8663 14.2746 97.0886 14.5164 98.8087C14.7202 99.8137 14.2907 101.629 13.5233 102.746C12.8277 103.798 11.1178 105.562 9.81631 106.528C8.15595 107.811 6.82911 108.3 5.17397 108.269C3.21587 108.194 2.8253 107.916 2.52123 106.438C2.32063 105.493 2.60979 103.864 3.0837 102.883Z" fill="#4ABEA7"/>
<path d="M35.5156 112.093C36.5922 111.139 38.1903 110.098 38.9957 109.697C39.8011 109.295 41.0562 108.87 41.7307 108.834C42.4801 108.794 43.6265 109.152 44.3295 109.652C45.1888 110.264 45.4516 110.967 45.1371 112.119C44.8849 113.028 44.1492 114.741 43.5318 115.849C42.9175 117.017 41.1358 118.845 39.5345 119.826C37.9364 120.867 35.8042 121.758 34.7518 121.754C33.7025 121.81 32.4126 121.579 31.8658 121.19C31.319 120.801 30.8999 119.987 30.8714 119.451C30.8397 118.855 31.435 117.329 32.121 116.098C32.8789 114.802 34.3608 112.991 35.5156 112.093Z" fill="#4ABEA7"/>
<path d="M36.8445 62.1864C36.875 61.3482 37.6266 59.9339 38.5597 59.1075C39.4896 58.2214 41.1785 57.4743 42.2277 57.4185C43.4268 57.3547 44.1204 57.6764 44.1489 58.2126C44.1742 58.6893 43.7816 59.7858 43.3014 60.6479C42.8961 61.506 41.4542 62.6583 40.2804 63.1988C39.0285 63.6837 37.8452 64.0454 37.461 63.8865C37.1549 63.7833 36.8888 63.0207 36.8445 62.1864Z" fill="#4ABEA7"/>
<path d="M26.762 71.8652C27.0206 71.0746 28.3749 69.688 29.6014 68.7264C30.8997 67.7013 32.5105 66.8986 33.185 66.8627C33.9345 66.8228 34.7715 67.0173 35.2402 67.3509C35.6308 67.6289 35.9095 68.6299 35.7291 69.4761C35.5518 70.3819 34.3569 71.9393 33.0586 72.9644C31.8321 73.926 29.9247 74.8042 28.8754 74.8601C27.8262 74.9159 26.8297 74.5506 26.5795 74.0858C26.3293 73.6211 26.4254 72.6002 26.762 71.8652Z" fill="#4ABEA7"/>
<path d="M17.0868 75.0688C17.7233 74.3179 19.0997 73.3483 20.1331 72.9946C21.1665 72.6409 22.1249 72.2911 22.3466 72.2196C22.5714 72.2076 23.1119 72.4776 23.6587 72.8668C24.4399 73.4228 24.3966 74.0227 23.4361 75.7469C22.8218 76.9149 21.3177 78.3095 20.0658 78.7944C18.8171 79.3389 17.4026 79.5934 16.8685 79.4425C16.4093 79.2877 15.9184 78.537 15.8804 77.8219C15.8392 77.0473 16.3754 75.8237 17.0868 75.0688Z" fill="#4ABEA7"/>
<path d="M20.5367 81.9961C21.379 80.8757 23.3296 79.3976 24.7937 78.6624C26.2609 77.9869 27.9561 77.3589 28.4026 77.2754C28.9273 77.2475 29.9237 77.6128 30.5487 78.0576C31.1736 78.5024 31.7426 79.3087 31.7679 79.7854C31.7933 80.2621 31.4038 81.4181 30.855 82.4034C30.3779 83.3251 28.6648 85.0296 27.2229 86.1819C24.9852 87.9143 23.9518 88.268 21.772 88.2644C19.2143 88.2212 19.0581 88.11 19.0285 86.1397C18.9683 85.0075 19.6195 83.1205 20.5367 81.9961Z" fill="#4ABEA7"/>
<path d="M3.44948 91.3902C3.63311 90.6036 5.04011 88.7959 6.61919 87.3973C8.19827 85.9987 10.2397 84.8145 11.1391 84.7667C12.1102 84.6553 13.3283 84.949 13.8002 85.3422C14.4251 85.787 14.6289 86.792 14.402 88.1784C14.1688 89.4457 12.7713 91.4321 11.0518 93.0175C8.76129 95.171 7.73741 95.7035 5.93238 95.68C4.20229 95.6525 3.58371 95.3269 3.3736 94.2027C3.26062 93.4916 3.26584 92.1768 3.44948 91.3902Z" fill="#4ABEA7"/>
<path d="M21.4165 92.8845C22.2651 91.8833 24.1535 90.6475 25.5553 90.1546C26.957 89.6618 28.59 89.2762 29.0365 89.1927C29.5611 89.1647 30.5576 89.53 31.1825 89.9748C31.8075 90.4196 32.3859 91.4047 32.4272 92.1793C32.4652 92.8944 31.8045 94.6026 30.8999 95.9653C30.0671 97.2645 27.917 99.2313 26.0941 100.284C23.907 101.556 22.2325 102.103 21.0706 101.926C20.1618 101.795 18.9996 101.14 18.59 100.504C18.021 99.6979 18.0452 98.7405 18.859 97.0838C19.392 95.8006 20.571 93.9453 21.4165 92.8845Z" fill="#4ABEA7"/>
<path d="M160.51 86.8008C160.413 86.3877 160.753 85.7123 161.33 85.2633C161.908 84.8143 162.72 84.5321 163.101 84.6314C163.557 84.7266 163.963 85.3026 163.998 85.958C164.036 86.6731 163.462 87.1816 162.344 87.3606C161.448 87.468 160.608 87.2139 160.51 86.8008Z" fill="#4ABEA7"/>
<path d="M148.948 92.6742C148.922 92.1976 149.546 91.2083 150.408 90.4454C151.272 89.7421 152.299 89.2692 152.755 89.3645C153.286 89.4558 153.764 89.9681 153.868 90.5004C154.046 91.0287 153.644 91.9464 152.995 92.459C152.421 92.9676 151.244 93.4485 150.419 93.4923C149.67 93.5322 148.973 93.1509 148.948 92.6742Z" fill="#4ABEA7"/>
<path d="M27.5836 104.268C28.7162 102.953 30.5043 101.245 31.7403 100.462C32.9014 99.6832 34.5967 99.0552 35.4211 99.0114C36.2423 98.9079 37.4668 99.3209 38.0949 99.8253C38.9541 100.437 39.1484 101.263 38.778 102.777C38.5384 103.925 37.5156 105.891 36.5329 107.198C35.4721 108.45 33.8308 110.091 32.7383 110.747C31.7239 111.458 29.8788 112.094 28.7546 112.154C27.6336 112.273 26.3373 111.924 25.8623 111.471C25.4622 111.014 25.2426 109.711 25.4136 108.686C25.5814 107.602 26.526 105.579 27.5836 104.268Z" fill="#4ABEA7"/>
<path d="M137.029 97.4911C137.144 96.8276 137.621 95.906 138.048 95.4649C138.401 95.0279 139.434 94.6742 140.265 94.7495C141.096 94.8248 141.942 95.1981 142.114 95.6072C142.283 95.9567 141.731 96.8824 140.942 97.5817C140.152 98.281 138.903 98.8255 138.147 98.7462C137.317 98.6708 136.917 98.2141 137.029 97.4911Z" fill="#4ABEA7"/>
<path d="M123.105 102.773C122.998 102.181 123.684 100.95 124.536 100.008C125.531 98.9392 126.702 98.3391 127.682 98.4065C128.513 98.4818 129.357 98.7954 129.522 99.0854C129.616 99.4389 129.152 100.599 128.385 101.715C127.405 103.082 126.388 103.734 125.113 103.802C123.839 103.869 123.221 103.544 123.105 102.773Z" fill="#4ABEA7"/>
<path d="M10.0035 114.286C10.2177 112.661 11.2658 111.172 13.7812 109.006C15.6442 107.294 17.826 105.923 18.5754 105.883C19.3249 105.843 20.3868 106.026 20.8492 106.24C21.3115 106.454 21.9459 107.078 22.2025 107.662C22.5308 108.182 22.2416 109.811 21.5682 111.281C20.8917 112.691 19.1258 114.817 17.6839 115.969C16.2389 117.062 14.2629 118.063 13.2886 118.115C12.3924 118.222 11.1711 117.869 10.618 117.361C10.0648 116.852 9.7766 115.673 10.0035 114.286Z" fill="#4ABEA7"/>
<path d="M109.087 107.701C108.977 107.05 109.807 105.691 110.877 104.619C112.159 103.295 113.477 102.628 114.976 102.548C116.924 102.444 117.08 102.556 116.788 104.125C116.611 105.031 115.781 106.389 114.923 107.212C113.99 108.038 112.445 108.658 111.246 108.722C109.822 108.798 109.206 108.532 109.087 107.701Z" fill="#4ABEA7"/>
<path d="M95.1904 112.086C95.1893 110.652 95.8753 109.42 97.523 107.898C99.0303 106.563 100.638 105.701 101.837 105.637C102.886 105.581 103.955 105.883 104.127 106.292C104.296 106.642 104.059 107.849 103.585 108.831C103.114 109.872 102.132 111.179 101.411 111.755C100.615 112.335 98.9293 113.142 97.5929 113.452C95.22 114.056 95.2169 113.996 95.1904 112.086Z" fill="#4ABEA7"/>
<path d="M80.5792 112.923C81.1217 111.818 82.6195 110.304 83.8587 109.581C85.1728 108.854 86.5683 108.242 87.018 108.218C87.3895 108.138 88.158 108.456 88.6299 108.849C89.1017 109.242 89.2991 110.128 89.1092 110.796C88.9192 111.463 88.3703 112.448 88.0241 113.005C87.5998 113.505 86.5232 114.459 85.5024 115.051C84.4849 115.703 82.9332 116.203 81.9589 116.255C81.0596 116.303 80.1412 115.993 79.9723 115.644C79.8002 115.235 80.0335 113.967 80.5792 112.923Z" fill="#4ABEA7"/>
<path d="M47.6612 117.183C47.9103 116.214 49.1674 114.414 50.4626 113.329C52.1134 111.867 53.5057 111.196 55.1545 111.108C56.6534 111.028 57.6467 111.334 57.9845 112.033C58.3129 112.553 58.2981 113.689 58.0427 114.54C57.7873 115.39 56.7328 116.76 55.653 117.654C54.5732 118.548 52.7439 119.482 51.4825 119.788C50.2211 120.094 48.9407 120.043 48.319 119.658C47.5442 119.221 47.3499 118.395 47.6612 117.183Z" fill="#4ABEA7"/>
<path d="M64.695 115.261C65.1625 114.161 66.3637 112.723 67.3813 112.071C68.327 111.483 70.0254 110.914 71.1496 110.855C72.7235 110.771 73.2639 111.041 73.3115 111.935C73.3463 112.59 72.9632 113.865 72.4144 114.851C71.9373 115.772 70.3519 117.052 69.0314 117.66C67.3425 118.407 66.1529 118.65 65.1564 118.284C64.466 118.022 63.8474 117.697 63.8379 117.518C63.8284 117.339 64.2242 116.302 64.695 115.261Z" fill="#4ABEA7"/>
</svg>
