<svg width="7393" height="2994" viewBox="0 0 7393 2994" fill="none" xmlns="http://www.w3.org/2000/svg">
<path d="M1514.07 1843.91V1341.18H1262.31V1277.46H1828.76V1341.18H1577.79V1843.91H1514.07ZM1888.38 1843.91V1277.46H1952.11V1528.43H2404.48V1277.46H2468.99V1843.91H2404.48V1592.94H1952.11V1843.91H1888.38ZM2558.36 1843.91V1277.46H3075.24V1341.18H2622.08V1528.43H2986.34V1592.94H2622.08V1780.18H3075.24V1843.91H2558.36ZM3463.96 1843.91C3446.66 1843.91 3430.65 1839.7 3415.97 1831.32C3401.81 1822.94 3390.53 1811.65 3382.14 1797.49C3373.74 1782.81 3369.56 1766.81 3369.56 1749.5V1727.47H3433.28V1749.5C3433.28 1757.88 3436.16 1765.23 3441.94 1771.53C3448.23 1777.31 3455.56 1780.18 3463.96 1780.18H3841.6C3849.98 1780.18 3857.06 1777.31 3862.84 1771.53C3869.13 1765.23 3872.28 1757.88 3872.28 1749.5V1622.83C3872.28 1614.45 3869.13 1607.37 3862.84 1601.59C3857.06 1595.82 3849.98 1592.94 3841.6 1592.94H3463.96C3446.66 1592.94 3430.65 1588.74 3415.97 1580.35C3401.81 1571.43 3390.53 1559.9 3382.14 1545.74C3373.74 1531.57 3369.56 1515.84 3369.56 1498.53V1371.87C3369.56 1354.56 3373.74 1338.82 3382.14 1324.66C3390.53 1309.99 3401.81 1298.43 3415.97 1290.05C3430.65 1281.66 3446.66 1277.46 3463.96 1277.46H3841.6C3858.9 1277.46 3874.64 1281.66 3888.8 1290.05C3903.48 1298.43 3915.01 1309.99 3923.42 1324.66C3931.8 1338.82 3936 1354.56 3936 1371.87V1393.9H3872.28V1371.87C3872.28 1363.48 3869.13 1356.4 3862.84 1350.63C3857.06 1344.33 3849.98 1341.18 3841.6 1341.18H3463.96C3455.56 1341.18 3448.23 1344.33 3441.94 1350.63C3436.16 1356.4 3433.28 1363.48 3433.28 1371.87V1498.53C3433.28 1506.91 3436.16 1514 3441.94 1519.77C3448.23 1525.55 3455.56 1528.43 3463.96 1528.43H3841.6C3858.9 1528.43 3874.64 1532.88 3888.8 1541.8C3903.48 1550.19 3915.01 1561.47 3923.42 1575.63C3931.8 1589.79 3936 1605.53 3936 1622.83V1749.5C3936 1766.81 3931.8 1782.81 3923.42 1797.49C3915.01 1811.65 3903.48 1822.94 3888.8 1831.32C3874.64 1839.7 3858.9 1843.91 3841.6 1843.91H3463.96ZM4020.38 1843.91V1277.46H4107.71L4342.94 1557.54L4578.18 1277.46H4665.5V1843.91H4601.78V1349.84L4342.94 1657.45L4084.11 1349.84V1843.91H4020.38ZM4751.85 1843.91V1277.46H5268.73V1341.18H4815.57V1528.43H5179.83V1592.94H4815.57V1780.18H5268.73V1843.91H4751.85ZM5661.36 1843.91C5644.05 1843.91 5628.07 1839.7 5613.37 1831.32C5599.21 1822.94 5587.95 1811.65 5579.54 1797.49C5571.16 1782.81 5566.95 1766.81 5566.95 1749.5V1371.87C5566.95 1354.56 5571.16 1338.82 5579.54 1324.66C5587.95 1309.99 5599.21 1298.43 5613.37 1290.05C5628.07 1281.66 5644.05 1277.46 5661.36 1277.46H6131.83V1341.18H5661.36C5652.98 1341.18 5645.63 1344.33 5639.33 1350.63C5633.58 1356.4 5630.68 1363.48 5630.68 1371.87V1749.5C5630.68 1757.88 5633.58 1765.23 5639.33 1771.53C5645.63 1777.31 5652.98 1780.18 5661.36 1780.18H6131.83V1843.91H5661.36ZM6215.44 1843.91V1277.46H6732.33V1341.18H6279.17V1528.43H6643.43V1592.94H6279.17V1843.91H6215.44ZM6875.24 1843.91C6857.94 1843.91 6841.93 1839.7 6827.25 1831.32C6813.09 1822.94 6801.81 1811.65 6793.42 1797.49C6785.02 1782.81 6780.84 1766.81 6780.84 1749.5V1371.87C6780.84 1354.56 6785.02 1338.82 6793.42 1324.66C6801.81 1309.99 6813.09 1298.43 6827.25 1290.05C6841.93 1281.66 6857.94 1277.46 6875.24 1277.46H7252.88C7270.18 1277.46 7285.92 1281.66 7300.08 1290.05C7314.76 1298.43 7326.29 1309.99 7334.7 1324.66C7343.08 1338.82 7347.28 1354.56 7347.28 1371.87V1749.5C7347.28 1766.81 7343.08 1782.81 7334.7 1797.49C7326.29 1811.65 7314.76 1822.94 7300.08 1831.32C7285.92 1839.7 7270.18 1843.91 7252.88 1843.91H6875.24ZM6875.24 1780.18H7252.88C7261.26 1780.18 7268.34 1777.31 7274.12 1771.53C7280.41 1765.23 7283.56 1757.88 7283.56 1749.5V1371.87C7283.56 1363.48 7280.41 1356.4 7274.12 1350.63C7268.34 1344.33 7261.26 1341.18 7252.88 1341.18H6875.24C6866.84 1341.18 6859.51 1344.33 6853.22 1350.63C6847.44 1356.4 6844.56 1363.48 6844.56 1371.87V1749.5C6844.56 1757.88 6847.44 1765.23 6853.22 1771.53C6859.51 1777.31 6866.84 1780.18 6875.24 1780.18Z" fill="white"/>
<path d="M6075.24 22.4391C6144.45 15.3535 6211.27 7.08543 6224.4 5.90533C6237.51 3.54267 6327.02 1.1801 6424.87 0C6521.52 0 6652.78 4.72287 6716.01 11.8108C6780.45 18.8964 6869.94 34.2499 6916.48 46.0608C6963.02 56.689 7040.59 86.2138 7089.52 109.823C7138.44 133.45 7207.65 177.163 7243.44 207.87C7288.78 248.018 7319.81 290.526 7350.83 353.121C7393.79 440.522 7393.79 440.522 7392.61 589.338C7391.4 677.894 7384.25 760.575 7356.81 855.057L6743.48 860.958V823.17C6743.48 801.903 6737.5 752.314 6730.35 713.347C6723.17 674.354 6706.47 618.865 6693.35 589.338C6680.22 559.811 6640.83 506.657 6606.24 471.229C6570.44 433.441 6510.77 389.728 6467.82 368.487C6426.05 347.22 6348.49 317.693 6296 303.532C6213.66 281.085 6169.5 277.545 5973.8 277.545C5811.52 277.545 5713.66 283.446 5627.76 297.607C5562.12 309.432 5443.99 334.239 5365.24 353.121C5286.49 372.027 5138.51 414.535 5037.1 448.783C4935.66 481.85 4778.14 540.904 4687.47 578.692C4597.98 616.48 4463.13 677.894 4390.33 714.527C4316.35 751.134 4188.68 820.81 4106.34 870.398C4024.01 918.832 3929.75 979.066 3897.51 1002.69C3864.1 1026.29 3825.92 1049.92 3810.41 1054.64C3796.1 1058.18 3781.77 1058.18 3779.38 1053.46C3777 1047.56 3782.97 1033.4 3793.71 1019.21C3805.64 1006.23 3865.31 957.8 3927.36 910.571C3989.39 864.498 4115.88 781.842 4207.76 726.328C4299.66 671.994 4450 588.158 4541.87 539.724C4633.77 491.316 4773.37 422.796 4852.14 386.188C4930.89 350.761 5072.89 291.706 5168.36 255.099C5263.8 218.491 5416.55 167.697 5508.43 141.71C5600.3 115.748 5737.54 81.4909 5812.72 64.9547C5887.9 49.6035 6006.04 30.7071 6075.24 22.4391Z" fill="white"/>
<path d="M15.4157 2529.43C27.0667 2505.28 67.2639 2462.01 104.479 2432.12C157.728 2391.09 186.666 2379.28 231.042 2379.85C282.868 2381.5 290.549 2386.98 296.494 2429.27C301.504 2453.98 290.945 2498.6 272.078 2526.06C254.976 2551.92 212.938 2595.29 180.94 2619.04C140.118 2650.58 107.498 2662.61 66.8067 2661.84C18.6659 2660 9.06283 2653.17 1.58639 2616.83C-3.34544 2593.6 3.76467 2553.55 15.4157 2529.43Z" fill="#4ABEA7"/>
<path d="M812.802 2755.86C839.256 2732.4 878.544 2706.81 898.359 2696.95C918.151 2687.07 949.005 2676.62 965.601 2675.73C984.015 2674.75 1012.19 2683.55 1029.5 2695.85C1050.62 2710.89 1057.08 2728.18 1049.34 2756.5C1043.14 2778.85 1025.05 2820.96 1009.88 2848.2C994.759 2876.92 950.972 2921.86 911.586 2945.98C872.299 2971.57 819.883 2993.48 794.019 2993.38C768.229 2994.76 736.513 2989.08 723.065 2979.51C709.617 2969.95 699.316 2949.94 698.603 2936.76C697.841 2922.11 712.469 2884.59 729.335 2854.32C747.97 2822.46 784.406 2777.94 812.802 2755.86Z" fill="#4ABEA7"/>
<path d="M845.512 1528.87C846.274 1508.27 864.762 1473.5 887.7 1453.17C910.565 1431.39 952.065 1413.02 977.88 1411.67C1007.36 1410.1 1024.4 1417.99 1025.11 1431.19C1025.72 1442.89 1016.09 1469.86 1004.26 1491.06C994.303 1512.15 958.851 1540.47 929.987 1553.78C899.231 1565.7 870.122 1574.57 860.681 1570.69C853.158 1568.13 846.618 1549.4 845.512 1528.87Z" fill="#4ABEA7"/>
<path d="M597.621 1766.84C603.989 1747.41 637.277 1713.31 667.419 1689.66C699.356 1664.46 738.938 1644.74 755.533 1643.86C773.948 1642.88 794.551 1647.64 806.057 1655.86C815.669 1662.69 822.529 1687.3 818.079 1708.1C813.727 1730.37 784.348 1768.65 752.436 1793.85C722.269 1817.51 675.385 1839.09 649.57 1840.47C623.78 1841.85 599.293 1832.87 593.147 1821.44C586.976 1810.01 589.336 1784.91 597.621 1766.84Z" fill="#4ABEA7"/>
<path d="M359.699 1845.61C375.348 1827.14 409.187 1803.3 434.594 1794.62C460 1785.91 483.563 1777.31 489.013 1775.56C494.54 1775.27 507.829 1781.91 521.272 1791.47C540.478 1805.14 539.413 1819.89 515.799 1862.28C500.696 1890.99 463.718 1925.29 432.939 1937.19C402.239 1950.59 367.463 1956.83 354.332 1953.14C343.042 1949.33 330.973 1930.87 330.039 1913.29C329.026 1894.24 342.209 1864.17 359.699 1845.61Z" fill="#4ABEA7"/>
<path d="M444.561 2015.91C465.269 1988.37 513.226 1952.03 549.221 1933.94C585.296 1917.34 626.968 1901.9 637.958 1899.84C650.84 1899.15 675.352 1908.15 690.718 1919.09C706.084 1930.01 720.073 1949.85 720.688 1961.55C721.302 1973.28 711.739 2001.7 698.241 2025.91C686.514 2048.58 644.399 2090.5 608.947 2118.82C553.929 2161.4 528.523 2170.11 474.932 2170.01C412.049 2168.95 408.209 2166.22 407.481 2117.79C406.001 2089.96 422.011 2043.57 444.561 2015.91Z" fill="#4ABEA7"/>
<path d="M24.4662 2246.86C28.9801 2227.54 63.5718 2183.09 102.395 2148.69C141.218 2114.32 191.406 2085.19 213.518 2084.03C237.393 2081.28 267.341 2088.51 278.943 2098.17C294.306 2109.11 299.317 2133.82 293.738 2167.89C288.005 2199.07 253.647 2247.9 211.372 2286.86C155.059 2339.82 129.886 2352.9 85.5095 2352.33C42.9742 2351.65 27.7654 2343.66 22.6 2316.02C19.8219 2298.54 19.9499 2266.21 24.4662 2246.86Z" fill="#4ABEA7"/>
<path d="M466.299 2283.59C487.163 2258.98 533.59 2228.6 568.054 2216.5C602.515 2204.38 642.663 2194.89 653.653 2192.85C666.536 2192.16 691.047 2201.13 706.413 2212.07C721.755 2223.01 735.99 2247.23 736.998 2266.26C737.932 2283.84 721.681 2325.86 699.456 2359.34C678.976 2391.28 626.117 2439.64 581.298 2465.52C527.53 2496.8 486.361 2510.25 457.795 2505.89C435.452 2502.67 406.879 2486.57 396.809 2470.93C382.82 2451.12 383.415 2427.57 403.422 2386.85C416.526 2355.31 445.512 2309.68 466.299 2283.59Z" fill="#4ABEA7"/>
<path d="M3885.87 2134.04C3883.49 2123.89 3891.85 2107.27 3906.03 2096.23C3920.24 2085.19 3940.21 2078.26 3949.57 2080.69C3960.78 2083.05 3970.77 2097.21 3971.63 2113.32C3972.56 2130.9 3958.45 2143.41 3930.96 2147.81C3908.93 2150.44 3888.28 2144.2 3885.87 2134.04Z" fill="#4ABEA7"/>
<path d="M3601.6 2278.43C3600.96 2266.73 3616.3 2242.39 3637.49 2223.63C3658.73 2206.35 3683.98 2194.72 3695.19 2197.05C3708.25 2199.31 3720 2211.9 3722.56 2224.98C3726.93 2237.99 3717.05 2260.53 3701.09 2273.14C3686.98 2285.66 3658.05 2297.46 3637.76 2298.54C3619.35 2299.52 3602.21 2290.16 3601.6 2278.43Z" fill="#4ABEA7"/>
<path d="M617.773 2563.48C645.604 2531.15 689.562 2489.15 719.95 2469.9C748.494 2450.75 790.191 2435.31 810.449 2434.23C830.634 2431.7 860.751 2441.85 876.191 2454.24C897.309 2469.29 902.079 2489.6 892.982 2526.82C887.082 2555.04 861.955 2603.38 837.788 2635.51C811.703 2666.29 771.358 2706.64 744.486 2722.76C719.557 2740.24 674.196 2755.88 646.562 2757.36C619.002 2760.28 587.115 2751.7 575.444 2740.56C565.608 2729.33 560.209 2697.29 564.413 2672.09C568.538 2645.44 591.762 2595.71 617.773 2563.48Z" fill="#4ABEA7"/>
<path d="M3308.54 2396.86C3311.37 2380.56 3323.09 2357.89 3333.59 2347.05C3342.27 2336.31 3367.67 2327.61 3388.1 2329.45C3408.53 2331.32 3429.33 2340.49 3433.56 2350.54C3437.71 2359.15 3424.14 2381.89 3404.74 2399.1C3385.32 2416.28 3354.61 2429.66 3336.03 2427.72C3315.62 2425.87 3305.79 2414.64 3308.54 2396.86Z" fill="#4ABEA7"/>
<path d="M2966.28 2526.72C2963.65 2512.16 2980.51 2481.9 3001.46 2458.74C3025.92 2432.46 3054.71 2417.71 3078.81 2419.35C3099.24 2421.22 3119.99 2428.92 3124.04 2436.05C3126.35 2444.75 3114.95 2473.27 3096.09 2500.71C3072 2534.32 3046.99 2550.35 3015.65 2552.02C2984.32 2553.66 2969.13 2545.67 2966.28 2526.72Z" fill="#4ABEA7"/>
<path d="M185.54 2809.77C190.806 2769.82 216.574 2733.21 278.416 2679.96C324.219 2637.87 377.859 2604.16 396.284 2603.18C414.71 2602.2 440.818 2606.7 452.186 2611.96C463.552 2617.22 479.149 2632.56 485.457 2646.92C493.529 2659.7 486.419 2699.75 469.863 2735.89C453.231 2770.56 409.815 2822.83 374.366 2851.15C338.84 2878.02 290.259 2902.63 266.305 2903.91C244.272 2906.54 214.245 2897.86 200.647 2885.37C187.047 2872.86 179.961 2843.87 185.54 2809.77Z" fill="#4ABEA7"/>
<path d="M2621.66 2647.88C2618.96 2631.87 2639.36 2598.46 2665.67 2572.11C2697.19 2539.55 2729.59 2523.16 2766.45 2521.19C2814.34 2518.63 2818.17 2521.39 2811 2559.96C2806.64 2582.23 2786.24 2615.62 2765.14 2635.86C2742.21 2656.16 2704.22 2671.41 2674.74 2672.98C2639.73 2674.85 2624.59 2668.31 2621.66 2647.88Z" fill="#4ABEA7"/>
<path d="M2279.91 2755.69C2279.89 2720.43 2296.75 2690.14 2337.27 2652.72C2374.32 2619.9 2413.86 2598.71 2443.33 2597.13C2469.12 2595.76 2495.41 2603.18 2499.63 2613.24C2503.79 2621.84 2497.96 2651.52 2486.31 2675.66C2474.73 2701.25 2450.59 2733.39 2432.86 2747.55C2413.29 2761.81 2371.84 2781.65 2338.99 2789.27C2280.65 2804.12 2280.58 2802.64 2279.91 2755.69Z" fill="#4ABEA7"/>
<path d="M1920.71 2776.26C1934.06 2749.09 1970.86 2711.87 2001.35 2694.1C2033.65 2676.22 2067.95 2661.18 2079.01 2660.59C2088.16 2658.62 2107.04 2666.44 2118.64 2676.1C2130.25 2685.76 2135.09 2707.55 2130.42 2723.97C2125.75 2740.37 2112.25 2764.58 2103.75 2778.28C2093.32 2790.57 2066.84 2814.02 2041.74 2828.58C2016.74 2844.61 1978.58 2856.9 1954.63 2858.18C1932.53 2859.36 1909.94 2851.74 1905.78 2843.16C1901.55 2833.1 1907.28 2801.93 1920.71 2776.26Z" fill="#4ABEA7"/>
<path d="M1111.36 2881C1117.48 2857.18 1148.38 2812.92 1180.25 2786.25C1220.81 2750.3 1255.06 2733.81 1295.58 2731.64C1332.43 2729.68 1356.87 2737.2 1365.18 2754.38C1373.24 2767.17 1372.87 2795.1 1366.6 2816.02C1360.31 2836.92 1334.4 2870.6 1307.84 2892.58C1281.29 2914.56 1236.33 2937.52 1205.32 2945.04C1174.3 2952.57 1142.83 2951.31 1127.53 2941.85C1108.48 2931.1 1103.71 2910.8 1111.36 2881Z" fill="#4ABEA7"/>
<path d="M1530.2 2833.75C1541.71 2806.7 1571.23 2771.35 1596.24 2755.32C1619.49 2740.86 1661.24 2726.87 1688.9 2725.42C1727.57 2723.36 1740.87 2730 1742.03 2751.97C1742.89 2768.08 1733.47 2799.42 1719.97 2823.67C1708.25 2846.31 1669.28 2877.78 1636.8 2892.73C1595.28 2911.09 1566.05 2917.07 1541.53 2908.07C1524.57 2901.63 1509.35 2893.64 1509.13 2889.24C1508.88 2884.83 1518.62 2859.34 1530.2 2833.75Z" fill="#4ABEA7"/>
</svg>
