<svg width="3528" height="1215" viewBox="0 0 3528 1215" fill="none" xmlns="http://www.w3.org/2000/svg">
<path d="M627.419 734.879V534.522H527.084V509.124H752.839V534.522H652.817V734.879H627.419ZM776.603 734.879V509.124H802V609.146H982.29V509.124H1008V734.879H982.29V634.857H802V734.879H776.603ZM1043.62 734.879V509.124H1249.62V534.522H1069.02V609.146H1214.19V634.857H1069.02V709.482H1249.62V734.879H1043.62ZM1404.54 734.879C1397.64 734.879 1391.26 733.206 1385.41 729.862C1379.77 726.518 1375.27 722.024 1371.93 716.38C1368.58 710.527 1366.92 704.151 1366.92 697.253V688.474H1392.31V697.253C1392.31 700.597 1393.46 703.524 1395.76 706.033C1398.27 708.332 1401.19 709.482 1404.54 709.482H1555.04C1558.39 709.482 1561.21 708.332 1563.51 706.033C1566.02 703.524 1567.27 700.597 1567.27 697.253V646.772C1567.27 643.428 1566.02 640.606 1563.51 638.306C1561.21 636.006 1558.39 634.857 1555.04 634.857H1404.54C1397.64 634.857 1391.26 633.184 1385.41 629.84C1379.77 626.286 1375.27 621.688 1371.93 616.044C1368.58 610.4 1366.92 604.129 1366.92 597.231V546.75C1366.92 539.852 1368.58 533.581 1371.93 527.937C1375.27 522.084 1379.77 517.485 1385.41 514.141C1391.26 510.797 1397.64 509.124 1404.54 509.124H1555.04C1561.94 509.124 1568.21 510.797 1573.86 514.141C1579.71 517.485 1584.3 522.084 1587.65 527.937C1590.99 533.581 1592.67 539.852 1592.67 546.75V555.529H1567.27V546.75C1567.27 543.406 1566.02 540.584 1563.51 538.284C1561.21 535.776 1558.39 534.522 1555.04 534.522H1404.54C1401.19 534.522 1398.27 535.776 1395.76 538.284C1393.46 540.584 1392.31 543.406 1392.31 546.75V597.231C1392.31 600.575 1393.46 603.397 1395.76 605.697C1398.27 607.997 1401.19 609.146 1404.54 609.146H1555.04C1561.94 609.146 1568.21 610.923 1573.86 614.476C1579.71 617.821 1584.3 622.315 1587.65 627.959C1590.99 633.603 1592.67 639.874 1592.67 646.772V697.253C1592.67 704.151 1590.99 710.527 1587.65 716.38C1584.3 722.024 1579.71 726.518 1573.86 729.862C1568.21 733.206 1561.94 734.879 1555.04 734.879H1404.54ZM1626.3 734.879V509.124H1661.1L1754.85 620.747L1848.6 509.124H1883.41V734.879H1858.01V537.971L1754.85 660.568L1651.7 537.971V734.879H1626.3ZM1917.82 734.879V509.124H2123.82V534.522H1943.22V609.146H2088.39V634.857H1943.22V709.482H2123.82V734.879H1917.82ZM2280.3 734.879C2273.4 734.879 2267.03 733.206 2261.18 729.862C2255.53 726.518 2251.04 722.024 2247.69 716.38C2244.35 710.527 2242.68 704.151 2242.68 697.253V546.75C2242.68 539.852 2244.35 533.581 2247.69 527.937C2251.04 522.084 2255.53 517.485 2261.18 514.141C2267.03 510.797 2273.4 509.124 2280.3 509.124H2467.8V534.522H2280.3C2276.96 534.522 2274.03 535.776 2271.52 538.284C2269.23 540.584 2268.07 543.406 2268.07 546.75V697.253C2268.07 700.597 2269.23 703.524 2271.52 706.033C2274.03 708.332 2276.96 709.482 2280.3 709.482H2467.8V734.879H2280.3ZM2501.13 734.879V509.124H2707.13V534.522H2526.53V609.146H2671.7V634.857H2526.53V734.879H2501.13ZM2764.09 734.879C2757.19 734.879 2750.81 733.206 2744.96 729.862C2739.32 726.518 2734.82 722.024 2731.48 716.38C2728.13 710.527 2726.46 704.151 2726.46 697.253V546.75C2726.46 539.852 2728.13 533.581 2731.48 527.937C2734.82 522.084 2739.32 517.485 2744.96 514.141C2750.81 510.797 2757.19 509.124 2764.09 509.124H2914.59C2921.49 509.124 2927.76 510.797 2933.4 514.141C2939.25 517.485 2943.85 522.084 2947.2 527.937C2950.54 533.581 2952.22 539.852 2952.22 546.75V697.253C2952.22 704.151 2950.54 710.527 2947.2 716.38C2943.85 722.024 2939.25 726.518 2933.4 729.862C2927.76 733.206 2921.49 734.879 2914.59 734.879H2764.09ZM2764.09 709.482H2914.59C2917.93 709.482 2920.75 708.332 2923.06 706.033C2925.56 703.524 2926.82 700.597 2926.82 697.253V546.75C2926.82 543.406 2925.56 540.584 2923.06 538.284C2920.75 535.776 2917.93 534.522 2914.59 534.522H2764.09C2760.74 534.522 2757.82 535.776 2755.31 538.284C2753.01 540.584 2751.86 543.406 2751.86 546.75V697.253C2751.86 700.597 2753.01 703.524 2755.31 706.033C2757.82 708.332 2760.74 709.482 2764.09 709.482Z" fill="white"/>
<path d="M2445.26 8.94307C2472.84 6.11894 2499.47 2.82413 2504.7 2.35344C2509.93 1.41207 2545.6 0.470688 2584.6 0C2623.12 0 2675.43 1.88275 2700.63 4.70688C2726.31 7.531 2761.98 13.6499 2780.53 18.3568C2799.08 22.593 2829.99 34.3602 2849.49 43.774C2868.99 53.1877 2896.57 70.6032 2910.84 82.841C2928.9 98.8442 2941.27 115.789 2953.64 140.735C2970.75 175.567 2970.75 175.567 2970.28 234.873C2969.8 270.175 2966.95 303.123 2956.02 340.778L2711.58 343.132V328.07C2711.58 319.597 2709.2 299.828 2706.34 284.295C2703.48 268.763 2696.83 246.64 2691.6 234.873C2686.37 223.106 2670.67 201.925 2656.88 187.805C2642.62 172.743 2618.83 155.327 2601.72 146.854C2585.07 138.383 2554.16 126.615 2533.24 120.967C2500.42 112.024 2482.82 110.612 2404.83 110.612C2340.15 110.612 2301.15 112.965 2266.92 118.613C2240.75 123.321 2193.67 133.204 2162.29 140.735C2130.9 148.266 2071.93 165.212 2031.51 178.862C1991.08 192.041 1928.3 215.575 1892.17 230.637C1856.5 245.699 1802.76 270.175 1773.74 284.766C1744.26 299.357 1693.38 327.128 1660.56 346.897C1627.75 366.195 1590.18 390.2 1577.33 399.613C1564.02 409.028 1548.8 418.441 1542.62 420.324C1536.92 421.736 1531.2 421.736 1530.25 419.853C1529.3 417.5 1531.68 411.852 1535.97 406.204C1540.72 401.025 1564.5 381.728 1589.23 362.9C1613.95 344.544 1664.36 311.596 1700.98 289.473C1737.61 267.821 1797.52 234.403 1834.14 215.104C1870.77 195.806 1926.4 168.506 1957.8 153.915C1989.18 139.795 2045.78 116.26 2083.82 101.668C2121.86 87.0772 2182.74 66.8376 2219.35 56.4825C2255.97 46.1274 2310.67 32.4774 2340.63 25.8878C2370.59 19.7689 2417.67 12.2379 2445.26 8.94307Z" fill="#4ABEA7"/>
<path d="M30.2139 1008.09C34.8575 998.465 50.8778 981.22 65.7091 969.308C86.9321 952.957 98.4646 948.245 116.151 948.475C136.806 949.133 139.867 951.312 142.236 968.166C144.233 978.013 140.024 995.8 132.505 1006.75C125.689 1017.05 108.935 1034.34 96.1826 1043.8C79.9138 1056.37 66.9129 1061.17 50.6952 1060.86C31.509 1060.13 27.682 1057.4 24.7026 1042.92C22.7371 1033.66 25.5704 1017.7 30.2139 1008.09Z" fill="#4ABEA7"/>
<path d="M347.995 1098.33C358.544 1088.98 374.203 1078.78 382.094 1074.85C389.986 1070.91 402.284 1066.75 408.893 1066.4C416.236 1066.01 427.469 1069.51 434.357 1074.41C442.777 1080.41 445.352 1087.3 442.27 1098.59C439.799 1107.49 432.59 1124.28 426.541 1135.13C420.522 1146.58 403.064 1164.49 387.374 1174.1C371.715 1184.3 350.823 1193.03 340.511 1192.99C330.23 1193.54 317.591 1191.28 312.233 1187.47C306.875 1183.65 302.769 1175.68 302.489 1170.43C302.179 1164.59 308.012 1149.63 314.733 1137.57C322.16 1124.87 336.68 1107.13 347.995 1098.33Z" fill="#4ABEA7"/>
<path d="M361.019 609.326C361.317 601.113 368.682 587.256 377.825 579.158C386.936 570.476 403.485 563.155 413.765 562.609C425.514 561.984 432.311 565.136 432.59 570.39C432.838 575.06 428.991 585.804 424.286 594.252C420.314 602.66 406.186 613.95 394.685 619.246C382.418 623.998 370.824 627.542 367.059 625.985C364.06 624.973 361.453 617.501 361.019 609.326Z" fill="#4ABEA7"/>
<path d="M262.225 704.163C264.759 696.416 278.029 682.83 290.046 673.408C302.768 663.364 318.551 655.498 325.16 655.147C332.504 654.756 340.705 656.661 345.297 659.93C349.125 662.654 351.855 672.462 350.088 680.754C348.351 689.629 336.643 704.889 323.921 714.933C311.904 724.356 293.214 732.96 282.933 733.508C272.652 734.055 262.888 730.476 260.437 725.921C257.985 721.368 258.927 711.365 262.225 704.163Z" fill="#4ABEA7"/>
<path d="M167.426 735.553C173.662 728.196 187.149 718.695 197.274 715.229C207.4 711.764 216.791 708.336 218.963 707.636C221.166 707.518 226.462 710.164 231.82 713.977C239.474 719.425 239.05 725.303 229.638 742.198C223.619 753.642 208.882 767.307 196.615 772.058C184.38 777.393 170.52 779.887 165.287 778.408C160.787 776.892 155.977 769.536 155.605 762.529C155.201 754.939 160.455 742.95 167.426 735.553Z" fill="#4ABEA7"/>
<path d="M201.224 803.43C209.477 792.452 228.59 777.969 242.936 770.765C257.312 764.146 273.922 757.993 278.297 757.174C283.438 756.901 293.201 760.48 299.325 764.839C305.448 769.197 311.024 777.097 311.272 781.768C311.52 786.439 307.704 797.766 302.327 807.42C297.652 816.452 280.866 833.153 266.738 844.444C244.812 861.418 234.686 864.884 213.328 864.849C188.267 864.426 186.736 863.336 186.446 844.03C185.856 832.937 192.237 814.447 201.224 803.43Z" fill="#4ABEA7"/>
<path d="M33.8006 895.476C35.5998 887.769 49.3862 870.057 64.8586 856.352C80.3311 842.648 100.334 831.045 109.146 830.577C118.662 829.485 130.597 832.363 135.221 836.216C141.344 840.574 143.341 850.421 141.118 864.006C138.833 876.423 125.139 895.887 108.291 911.421C85.8477 932.522 75.8154 937.74 58.129 937.51C41.1769 937.24 35.1158 934.05 33.0571 923.034C31.95 916.067 32.0012 903.184 33.8006 895.476Z" fill="#4ABEA7"/>
<path d="M209.849 910.118C218.164 900.308 236.667 888.199 250.402 883.37C264.137 878.541 280.137 874.763 284.512 873.945C289.653 873.67 299.417 877.25 305.54 881.608C311.664 885.966 317.331 895.619 317.736 903.208C318.108 910.215 311.634 926.953 302.771 940.305C294.611 953.035 273.543 972.307 255.682 982.621C234.252 995.085 217.844 1000.44 206.459 998.71C197.555 997.427 186.167 991.009 182.153 984.777C176.578 976.879 176.815 967.498 184.789 951.265C190.012 938.691 201.564 920.512 209.849 910.118Z" fill="#4ABEA7"/>
<path d="M1572.74 850.508C1571.79 846.46 1575.12 839.842 1580.77 835.443C1586.44 831.043 1594.39 828.278 1598.13 829.251C1602.6 830.184 1606.57 835.828 1606.92 842.25C1607.29 849.257 1601.66 854.239 1590.71 855.993C1581.93 857.045 1573.7 854.556 1572.74 850.508Z" fill="#4ABEA7"/>
<path d="M1459.45 908.058C1459.2 903.388 1465.31 893.694 1473.76 886.219C1482.22 879.328 1492.29 874.694 1496.75 875.628C1501.96 876.523 1506.64 881.542 1507.66 886.758C1509.4 891.934 1505.46 900.926 1499.11 905.949C1493.48 910.933 1481.95 915.645 1473.86 916.074C1466.53 916.465 1459.7 912.729 1459.45 908.058Z" fill="#4ABEA7"/>
<path d="M270.274 1021.66C281.372 1008.77 298.892 992.038 311.003 984.366C322.38 976.735 338.991 970.581 347.069 970.152C355.115 969.138 367.113 973.185 373.268 978.127C381.686 984.121 383.59 992.214 379.961 1007.05C377.613 1018.3 367.591 1037.56 357.963 1050.37C347.568 1062.64 331.486 1078.71 320.782 1085.14C310.842 1092.11 292.763 1098.34 281.748 1098.93C270.764 1100.09 258.062 1096.67 253.408 1092.24C249.488 1087.76 247.336 1074.99 249.011 1064.95C250.656 1054.33 259.911 1034.5 270.274 1021.66Z" fill="#4ABEA7"/>
<path d="M1342.67 955.256C1343.79 948.754 1348.47 939.724 1352.65 935.402C1356.11 931.12 1366.23 927.654 1374.37 928.392C1382.52 929.13 1390.8 932.788 1392.49 936.796C1394.15 940.221 1388.74 949.291 1381.01 956.143C1373.27 962.995 1361.03 968.331 1353.62 967.554C1345.49 966.815 1341.57 962.34 1342.67 955.256Z" fill="#4ABEA7"/>
<path d="M1206.23 1007.01C1205.18 1001.21 1211.9 989.147 1220.25 979.917C1230 969.445 1241.47 963.565 1251.08 964.225C1259.22 964.963 1267.49 968.036 1269.1 970.877C1270.03 974.341 1265.48 985.708 1257.96 996.643C1248.36 1010.04 1238.4 1016.43 1225.9 1017.09C1213.42 1017.75 1207.36 1014.56 1206.23 1007.01Z" fill="#4ABEA7"/>
<path d="M98.0199 1119.82C100.119 1103.9 110.388 1089.31 135.035 1068.08C153.29 1051.31 174.668 1037.87 182.011 1037.48C189.355 1037.09 199.759 1038.88 204.29 1040.98C208.82 1043.08 215.036 1049.19 217.55 1054.91C220.767 1060.01 217.934 1075.97 211.335 1090.37C204.707 1104.19 187.404 1125.02 173.275 1136.31C159.117 1147.02 139.755 1156.83 130.209 1157.34C121.427 1158.38 109.46 1154.93 104.041 1149.95C98.6205 1144.96 95.7966 1133.41 98.0199 1119.82Z" fill="#4ABEA7"/>
<path d="M1068.88 1055.3C1067.8 1048.92 1075.93 1035.6 1086.42 1025.1C1098.98 1012.12 1111.89 1005.59 1126.58 1004.81C1145.67 1003.79 1147.19 1004.88 1144.33 1020.26C1142.6 1029.13 1134.47 1042.44 1126.06 1050.5C1116.92 1058.6 1101.78 1064.67 1090.03 1065.3C1076.08 1066.04 1070.04 1063.44 1068.88 1055.3Z" fill="#4ABEA7"/>
<path d="M932.713 1098.26C932.702 1084.21 939.424 1072.14 955.569 1057.23C970.338 1044.15 986.091 1035.7 997.839 1035.07C1008.12 1034.52 1018.59 1037.48 1020.28 1041.49C1021.93 1044.92 1019.61 1056.75 1014.97 1066.37C1010.35 1076.57 1000.73 1089.37 993.665 1095.02C985.865 1100.7 969.348 1108.61 956.254 1111.65C933.003 1117.56 932.973 1116.98 932.713 1098.26Z" fill="#4ABEA7"/>
<path d="M789.545 1106.46C794.861 1095.64 809.537 1080.8 821.679 1073.72C834.555 1066.59 848.229 1060.6 852.635 1060.36C856.275 1059.58 863.805 1062.69 868.429 1066.54C873.052 1070.4 874.986 1079.08 873.126 1085.62C871.264 1092.16 865.886 1101.81 862.493 1107.27C858.336 1112.17 847.787 1121.51 837.785 1127.31C827.815 1133.7 812.611 1138.6 803.064 1139.11C794.252 1139.58 785.254 1136.54 783.599 1133.12C781.912 1129.12 784.198 1116.69 789.545 1106.46Z" fill="#4ABEA7"/>
<path d="M467.003 1148.2C469.444 1138.71 481.761 1121.07 494.452 1110.44C510.627 1096.12 524.27 1089.54 540.425 1088.68C555.112 1087.9 564.845 1090.89 568.155 1097.74C571.373 1102.84 571.228 1113.97 568.725 1122.31C566.223 1130.64 555.89 1144.06 545.31 1152.82C534.729 1161.58 516.805 1170.73 504.446 1173.73C492.086 1176.73 479.54 1176.23 473.448 1172.46C465.857 1168.17 463.953 1160.08 467.003 1148.2Z" fill="#4ABEA7"/>
<path d="M633.909 1129.37C638.489 1118.59 650.259 1104.5 660.23 1098.11C669.496 1092.35 686.138 1086.78 697.153 1086.2C712.575 1085.38 717.87 1088.02 718.336 1096.78C718.677 1103.2 714.924 1115.69 709.546 1125.35C704.871 1134.38 689.337 1146.92 676.398 1152.88C659.85 1160.2 648.194 1162.58 638.43 1158.99C631.665 1156.43 625.604 1153.24 625.51 1151.49C625.417 1149.73 629.296 1139.57 633.909 1129.37Z" fill="#4ABEA7"/>
</svg>
